<svg width="768" height="154" viewBox="0 0 768 154" fill="none" xmlns="http://www.w3.org/2000/svg">
<path d="M9.344 119V34.52H37.12L60.672 98.136H61.312L84.352 34.52H110.848V119H93.312L94.464 53.208H93.056L67.456 119H52.096L26.88 53.208H25.472L26.624 119H9.344ZM151.482 120.792C143.631 120.792 137.701 118.147 133.69 112.856C129.765 107.48 127.802 99.3307 127.802 88.408V51.8H146.234V86.104C146.234 92.6747 147.215 97.5813 149.178 100.824C151.141 103.981 154.127 105.56 158.138 105.56C160.527 105.56 162.618 104.963 164.41 103.768C166.202 102.573 167.738 100.909 169.018 98.776C170.298 96.6427 171.237 94.1253 171.834 91.224C172.517 88.3227 172.901 85.208 172.986 81.88V51.8H191.418V91.608V119H176.57L176.442 98.008H174.138C172.858 103.299 171.237 107.651 169.274 111.064C167.397 114.392 164.965 116.867 161.978 118.488C159.077 120.024 155.578 120.792 151.482 120.792ZM208.323 119V78.296V51.8H223.427L223.299 71.896H225.859C226.968 67.032 228.547 62.9787 230.595 59.736C232.643 56.4933 235.203 54.0613 238.275 52.44C241.432 50.8187 245.144 50.008 249.411 50.008C257.176 50.008 263.064 52.7387 267.075 58.2C271.171 63.6613 273.219 72.2373 273.219 83.928V119H254.659V85.976C254.659 78.808 253.592 73.6027 251.459 70.36C249.411 67.032 246.382 65.368 242.371 65.368C238.958 65.368 236.099 66.4347 233.795 68.568C231.491 70.7013 229.742 73.5173 228.547 77.016C227.438 80.4293 226.84 84.2693 226.755 88.536V119H208.323ZM313.521 120.792C307.889 120.792 302.94 119.341 298.673 116.44C294.492 113.539 291.249 109.443 288.945 104.152C286.641 98.8613 285.489 92.5893 285.489 85.336C285.489 78.5093 286.513 72.4507 288.561 67.16C290.609 61.8693 293.638 57.7307 297.649 54.744C301.66 51.7573 306.652 50.264 312.625 50.264C316.977 50.264 320.646 51.0747 323.633 52.696C326.62 54.3173 329.052 56.7067 330.929 59.864C332.892 62.936 334.428 66.648 335.537 71H338.481C337.884 68.2693 337.329 65.624 336.817 63.064C336.39 60.4187 336.049 57.9013 335.793 55.512C335.537 53.1227 335.409 51.032 335.409 49.24V27.48H353.841V85.976V119H338.481V99.544H335.921C334.982 104.323 333.532 108.291 331.569 111.448C329.606 114.605 327.089 116.952 324.017 118.488C321.03 120.024 317.532 120.792 313.521 120.792ZM319.665 105.688C322.481 105.688 324.87 105.091 326.833 103.896C328.796 102.701 330.417 101.165 331.697 99.288C332.977 97.3253 333.916 95.2347 334.513 93.016C335.11 90.712 335.409 88.5787 335.409 86.616V84.184C335.409 82.5627 335.153 80.8987 334.641 79.192C334.214 77.4 333.574 75.6507 332.721 73.944C331.868 72.2373 330.801 70.744 329.521 69.464C328.241 68.0987 326.748 67.032 325.041 66.264C323.334 65.496 321.457 65.112 319.409 65.112C316.337 65.112 313.734 65.9653 311.601 67.672C309.468 69.3787 307.804 71.768 306.609 74.84C305.414 77.8267 304.817 81.3253 304.817 85.336C304.817 89.432 305.414 93.016 306.609 96.088C307.889 99.16 309.638 101.549 311.857 103.256C314.076 104.877 316.678 105.688 319.665 105.688ZM401.287 120.792C394.546 120.792 388.615 119.469 383.495 116.824C378.375 114.093 374.364 110.125 371.463 104.92C368.562 99.6293 367.111 93.0587 367.111 85.208C367.111 77.3573 368.562 70.8293 371.463 65.624C374.45 60.4187 378.503 56.536 383.623 53.976C388.828 51.3307 394.716 50.008 401.287 50.008C408.028 50.008 413.959 51.3307 419.079 53.976C424.284 56.6213 428.338 60.5893 431.239 65.88C434.226 71.0853 435.719 77.6133 435.719 85.464C435.719 93.4 434.183 100.013 431.111 105.304C428.124 110.509 424.028 114.392 418.823 116.952C413.703 119.512 407.858 120.792 401.287 120.792ZM401.927 107.096C405.255 107.096 408.028 106.328 410.247 104.792C412.551 103.256 414.258 100.952 415.367 97.88C416.562 94.7227 417.159 90.9253 417.159 86.488C417.159 81.7947 416.519 77.8267 415.239 74.584C414.044 71.256 412.252 68.7387 409.863 67.032C407.474 65.24 404.444 64.344 400.775 64.344C397.618 64.344 394.887 65.112 392.583 66.648C390.279 68.0987 388.53 70.4027 387.335 73.56C386.14 76.632 385.543 80.4293 385.543 84.952C385.543 92.2053 386.994 97.7093 389.895 101.464C392.796 105.219 396.807 107.096 401.927 107.096ZM492.147 95.192V80.728H511.475C517.619 80.728 522.227 79.4907 525.299 77.016C528.371 74.456 529.907 70.2747 529.907 64.472C529.907 59.352 528.456 55.4693 525.555 52.824C522.739 50.0933 518.344 48.728 512.371 48.728H492.147V34.52H512.883C518.344 34.52 523.251 35.16 527.603 36.44C532.04 37.72 535.795 39.64 538.867 42.2C542.024 44.6747 544.414 47.832 546.035 51.672C547.656 55.4267 548.467 59.864 548.467 64.984C548.467 71.5547 546.974 77.1013 543.987 81.624C541 86.0613 536.563 89.432 530.675 91.736C524.872 94.04 517.619 95.192 508.915 95.192H492.147ZM479.219 119V34.52H497.651V119H479.219ZM560.823 119V51.8H579.255V119H560.823ZM575.927 42.584H561.847L571.447 20.952H589.751L575.927 42.584ZM589.542 119L611.814 85.336L589.542 51.8H610.79L623.078 77.144H625.254L637.542 51.8H658.662L636.39 85.336L658.918 119H637.798L625.254 93.528H623.078L610.79 119H589.542ZM697.43 120.792C691.883 120.792 686.934 120.024 682.582 118.488C678.315 116.952 674.689 114.733 671.702 111.832C668.715 108.931 666.411 105.347 664.79 101.08C663.254 96.8133 662.486 91.992 662.486 86.616C662.486 81.3253 663.211 76.4613 664.662 72.024C666.198 67.5013 668.417 63.6187 671.318 60.376C674.219 57.048 677.761 54.488 681.942 52.696C686.123 50.904 690.859 50.008 696.15 50.008C701.27 50.008 705.835 50.8613 709.846 52.568C713.857 54.1893 717.185 56.664 719.83 59.992C722.561 63.32 724.523 67.416 725.718 72.28C726.998 77.0587 727.467 82.5627 727.126 88.792L674.39 89.304V79.192L716.502 78.808L709.974 83.928C710.571 79.4053 710.273 75.6933 709.078 72.792C707.883 69.8907 706.134 67.7573 703.83 66.392C701.611 65.0267 699.137 64.344 696.406 64.344C693.163 64.344 690.305 65.1973 687.83 66.904C685.355 68.6107 683.435 71.128 682.07 74.456C680.705 77.6987 680.022 81.624 680.022 86.232C680.022 93.4853 681.601 98.8187 684.758 102.232C688.001 105.645 692.225 107.352 697.43 107.352C699.819 107.352 701.825 107.053 703.446 106.456C705.153 105.773 706.518 104.92 707.542 103.896C708.651 102.872 709.505 101.72 710.102 100.44C710.785 99.16 711.339 97.88 711.766 96.6L727.766 100.056C726.998 103.213 725.846 106.072 724.31 108.632C722.859 111.107 720.897 113.283 718.422 115.16C715.947 116.952 712.961 118.317 709.462 119.256C706.049 120.28 702.038 120.792 697.43 120.792ZM740.573 119V27.48H758.749V119H740.573Z" fill="#00040D"/>
<path d="M660.471 119.297L636.752 84.9356L649.704 67.2369L661.077 51.1744L637.879 51.1861L631.369 63.2019L624.348 76.8538L624.339 93.5353L627.034 99.0943L637.273 119.309L660.471 119.297Z" fill="#FF0686"/>
<path d="M588.25 51L599.605 67.7463L610.96 85L588.25 119H610.96L623.5 93.5H627L636.5 85.5L625 77H624H623L610.444 51H588.25Z" fill="#FFDD00"/>
</svg>
