<?xml version="1.0" encoding="UTF-8"?><svg id="Jar_Logo_TM" xmlns="http://www.w3.org/2000/svg" viewBox="0 0 360 212.93"><defs><style>.cls-1{fill:#7597bc;}.cls-1,.cls-2{stroke-width:0px;}.cls-2{fill:#183151;}</style></defs><path class="cls-1" d="M309.63,136.9c-2.11,0-4.29-.19-6.49-.57h-26.19c-2.29.39-4.44.57-6.55.57-10.19,0-19.8-3.98-27.03-11.21-7.23-7.23-11.21-16.85-11.21-27.1,0-2.48.23-4.87.7-7.31.09-.4.17-.8.26-1.19-3.3-2.86-6.07-6.31-8.25-10.27-3.15-5.58-4.82-12-4.82-18.53,0-10.2,3.98-19.8,11.21-27.03,6.34-6.42,14.65-10.31,23.58-11.09,2.56-5.92,6.56-11.1,11.67-15.07,6.76-5.29,14.9-8.1,23.52-8.1s16.74,2.8,23.58,8.09c5.09,4.02,9.06,9.19,11.6,15.07,8.93.78,17.24,4.67,23.6,11.1,7.22,7.22,11.2,16.82,11.2,27.02,0,6.46-1.64,12.87-4.75,18.53-2.12,3.85-4.97,7.36-8.3,10.25.1.45.19.9.26,1.36.5,2.55.74,4.87.74,7.16,0,10.24-3.98,19.87-11.22,27.1-7.23,7.23-16.85,11.21-27.1,11.21ZM276.28,120.46h27.55l.4.1c1.56.41,3.37.61,5.39.61,6.1,0,11.77-2.34,15.96-6.6,4.29-4.22,6.63-9.89,6.63-15.99,0-1.54-.13-3.07-.38-4.41-.35-1.61-.73-2.89-1.22-4.02l-2.45-6.13,5.55-3.5c3.26-2.07,5.97-4.93,7.81-8.25,1.84-3.29,2.8-7.09,2.8-10.99,0-6.04-2.35-11.71-6.61-15.98-4.21-4.27-9.88-6.61-15.98-6.61h-.93c-.06,0-.22,0-.41.03l-.34.04-6.51.36-1.57-6.3c-1.24-4.93-4.1-9.34-8.05-12.42-3.94-3.11-8.75-4.74-13.92-4.74s-10.04,1.68-13.91,4.73c-3.97,3.09-6.83,7.5-8.07,12.44l-1.58,6.3-6.86-.4c-.18-.03-.3-.03-.4-.03h-.93c-6.04,0-11.71,2.35-15.97,6.61-4.26,4.33-6.62,10.01-6.62,15.98,0,3.9.97,7.7,2.8,10.98,1.89,3.39,4.53,6.17,7.88,8.25l5.61,3.53-2.57,6.09c-.55,1.46-.93,2.76-1.15,4.01-.31,1.38-.45,2.82-.45,4.44,0,5.95,2.41,11.77,6.62,15.98,4.27,4.27,9.94,6.62,15.97,6.62,2.04,0,3.84-.2,5.49-.62l.39-.1Z"/><path class="cls-2" d="M302.57,168.55h-25.03c-.91,0-1.66-.74-1.66-1.66v-66.77c0-10.55-8.99-20.83-13.88-22.91-.51-.21-.87-.67-.98-1.21-.11-.54.06-1.1.45-1.49l7.08-7.08c.52-.52,1.31-.63,1.96-.29,4.04,2.19,8.06,6.49,11.98,12.84v-20.94c0-.91.74-1.66,1.66-1.66h11.82c.91,0,1.66.74,1.66,1.66v20.89c3.14-5.1,7.21-10.25,11.91-12.79.64-.34,1.44-.23,1.96.29l7.08,7.08c.39.39.56.94.46,1.48-.1.54-.47.99-.97,1.21-4.87,2.09-13.82,12.38-13.82,22.91v66.77c0,.91-.74,1.66-1.66,1.66Z"/><path class="cls-2" d="M64.73,204.16v-22.56h2.13v22.56h-2.13Z"/><path class="cls-2" d="M72.72,204.16h-1.88v-16.23h1.88v2.26c.75-.79,1.53-1.44,2.33-1.94s1.77-.75,2.9-.75c1,0,1.93.17,2.79.52.86.34,1.58.94,2.16,1.8.4.58.63,1.19.71,1.8.07.62.11,1.26.11,1.93v10.62h-1.88v-10.59c0-1.46-.32-2.56-.97-3.29s-1.72-1.1-3.23-1.1c-.58,0-1.12.09-1.6.27-.48.18-.91.41-1.3.7-.39.29-.72.63-.99,1-.27.38-.48.77-.63,1.19-.19.52-.3,1.02-.34,1.5-.04.48-.06,1-.06,1.57v8.74Z"/><path class="cls-2" d="M87.79,199.08c.29,1.4.82,2.39,1.58,2.96.76.57,1.85.86,3.28.86.69,0,1.28-.08,1.79-.25.5-.17.91-.39,1.24-.67.32-.28.57-.6.74-.96.17-.35.25-.73.25-1.13,0-.79-.26-1.38-.77-1.77-.51-.39-1.15-.69-1.93-.91-.77-.22-1.61-.41-2.51-.56s-1.73-.39-2.51-.71c-.77-.31-1.42-.76-1.93-1.35-.51-.58-.77-1.41-.77-2.48,0-1.36.5-2.47,1.49-3.34.99-.87,2.4-1.3,4.22-1.3s3.18.39,4.28,1.17c1.1.78,1.76,2.1,1.99,3.93h-1.91c-.17-1.25-.64-2.14-1.43-2.65-.78-.51-1.77-.77-2.96-.77s-2.1.26-2.73.77c-.63.51-.94,1.19-.94,2.02,0,.73.26,1.29.77,1.68s1.15.7,1.93.94c.77.24,1.61.46,2.51.64.9.19,1.73.46,2.51.8s1.42.81,1.93,1.39.77,1.4.77,2.45c0,.77-.17,1.46-.5,2.05-.33.59-.79,1.09-1.38,1.49-.59.4-1.28.69-2.08.89-.8.2-1.69.3-2.65.3s-1.81-.14-2.55-.42-1.37-.67-1.9-1.18c-.52-.5-.93-1.09-1.22-1.75-.29-.67-.46-1.39-.5-2.16h1.91Z"/><path class="cls-2" d="M111.8,187.93h1.88v16.23h-1.88v-2.26c-.25.29-.53.59-.85.91-.31.31-.67.6-1.08.86s-.88.48-1.43.66-1.17.27-1.88.27c-1.09,0-2-.15-2.73-.46-.73-.3-1.32-.73-1.77-1.27-.45-.54-.77-1.18-.97-1.9s-.3-1.51-.3-2.37v-10.69h1.88v10.66c0,1.4.32,2.47.97,3.21s1.71,1.11,3.2,1.11c.77,0,1.47-.15,2.08-.46.62-.3,1.13-.73,1.55-1.27.42-.54.74-1.19.97-1.94.23-.75.34-1.58.34-2.48v-8.84Z"/><path class="cls-2" d="M118.63,204.16h-1.88v-16.23h1.88v3.04h.06c.52-1.3,1.2-2.2,2.02-2.71.82-.51,1.92-.77,3.27-.77v2.04c-1.06-.02-1.94.15-2.63.5-.69.35-1.24.83-1.64,1.44s-.69,1.32-.85,2.15-.24,1.69-.24,2.58v7.96Z"/><path class="cls-2" d="M132.98,194.69c.35-.04.78-.1,1.27-.19.49-.08.89-.2,1.21-.34.31-.15.51-.39.58-.74.07-.34.11-.66.11-.96,0-.96-.31-1.75-.92-2.37s-1.66-.92-3.12-.92c-.65,0-1.24.06-1.79.17-.54.11-1.02.31-1.43.59-.41.28-.74.66-1,1.13-.26.47-.43,1.06-.52,1.77h-1.91c.06-.96.28-1.78.66-2.46.38-.68.86-1.23,1.46-1.66s1.28-.74,2.07-.94c.78-.2,1.61-.3,2.49-.3.81,0,1.58.09,2.3.27.72.18,1.35.46,1.88.85.53.39.95.9,1.25,1.55.3.65.45,1.44.45,2.38v8.84c0,.73.13,1.19.39,1.39.26.2.79.15,1.58-.14v1.47c-.15.04-.36.1-.64.19-.28.08-.56.12-.83.12-.29,0-.57-.03-.85-.09-.31-.04-.56-.14-.75-.3-.19-.16-.34-.34-.45-.56-.12-.22-.19-.46-.24-.72s-.06-.54-.06-.83c-.79.88-1.7,1.55-2.73,2.01-1.02.46-2.13.69-3.32.69-.71,0-1.39-.09-2.05-.28s-1.24-.48-1.74-.88-.9-.88-1.19-1.46-.44-1.26-.44-2.05c0-2.76,1.89-4.39,5.67-4.89l2.6-.34ZM136.15,195.64c-.79.33-1.6.55-2.41.66-.82.1-1.63.19-2.44.25-1.44.1-2.57.43-3.37.97-.8.54-1.21,1.37-1.21,2.47,0,.5.1.94.3,1.3s.46.67.78.91c.32.24.7.42,1.13.53.43.11.86.17,1.3.17.75,0,1.48-.09,2.19-.28s1.34-.47,1.9-.86c.55-.39,1-.88,1.33-1.47.33-.59.5-1.3.5-2.11v-2.54Z"/><path class="cls-2" d="M143.26,204.16h-1.88v-16.23h1.88v2.26c.75-.79,1.53-1.44,2.33-1.94s1.77-.75,2.9-.75c1,0,1.93.17,2.79.52.86.34,1.58.94,2.16,1.8.4.58.63,1.19.71,1.8.07.62.11,1.26.11,1.93v10.62h-1.88v-10.59c0-1.46-.32-2.56-.97-3.29s-1.72-1.1-3.23-1.1c-.58,0-1.12.09-1.6.27-.48.18-.91.41-1.3.7-.39.29-.72.63-.99,1-.27.38-.48.77-.63,1.19-.19.52-.3,1.02-.34,1.5-.04.48-.06,1-.06,1.57v8.74Z"/><path class="cls-2" d="M168.74,193.03c-.33-1.21-.91-2.16-1.72-2.83-.81-.68-1.85-1.02-3.1-1.02-.96,0-1.79.2-2.48.59s-1.25.92-1.69,1.58-.76,1.4-.97,2.23c-.21.82-.31,1.66-.31,2.49s.1,1.69.3,2.51c.2.82.52,1.55.96,2.19.44.65,1,1.17,1.69,1.55.69.39,1.52.58,2.51.58,1.4,0,2.52-.39,3.37-1.16s1.38-1.84,1.61-3.2h2.01c-.17.9-.43,1.72-.8,2.46-.37.74-.84,1.38-1.41,1.91-.58.53-1.26.94-2.05,1.24-.79.29-1.7.44-2.73.44-1.3,0-2.41-.22-3.35-.66-.94-.44-1.71-1.04-2.32-1.8-.61-.76-1.06-1.67-1.35-2.71-.29-1.04-.44-2.16-.44-3.35,0-1.13.16-2.21.49-3.24.32-1.03.8-1.95,1.43-2.74s1.4-1.43,2.34-1.9c.93-.47,2-.7,3.21-.7,1.88,0,3.4.45,4.56,1.35,1.16.9,1.89,2.3,2.18,4.2h-1.91Z"/><path class="cls-2" d="M174.26,196.48c0,.88.12,1.71.34,2.49.23.78.57,1.46,1.02,2.04.45.58,1.02,1.04,1.71,1.38.69.34,1.48.52,2.38.52,1.23,0,2.29-.33,3.16-.97.88-.65,1.46-1.57,1.76-2.76h2.1c-.23.77-.53,1.49-.91,2.15s-.85,1.23-1.41,1.72c-.56.49-1.23.87-2.01,1.14-.77.27-1.67.41-2.7.41-1.3,0-2.41-.22-3.35-.66-.94-.44-1.71-1.04-2.32-1.8-.61-.76-1.06-1.66-1.35-2.7-.29-1.03-.44-2.15-.44-3.34s.17-2.31.52-3.35c.34-1.05.84-1.96,1.47-2.74.64-.78,1.42-1.4,2.34-1.85.92-.45,1.96-.67,3.13-.67,2.24,0,3.99.77,5.26,2.3,1.27,1.54,1.9,3.77,1.88,6.69h-12.6ZM184.85,194.91c0-.79-.11-1.54-.33-2.24-.22-.7-.54-1.31-.97-1.82-.43-.51-.97-.92-1.61-1.22-.65-.3-1.39-.45-2.22-.45s-1.57.15-2.21.47c-.64.31-1.18.73-1.63,1.25s-.81,1.13-1.08,1.82c-.27.69-.45,1.42-.53,2.19h10.59Z"/><path class="cls-2" d="M45.41,71.26c2.05,0,3.08,1.1,3.08,3.3v88.86c0,6.94-1.1,13.41-3.3,19.42-2.2,6.01-5.29,11.21-9.27,15.61-3.98,4.4-8.72,7.91-14.22,10.54-5.5,2.62-11.64,3.93-18.41,3.93-2.2-.17-3.3-1.36-3.3-3.55v-18.02c.5-2.03,1.59-3.05,3.26-3.05l2.26-.25c5.86-.68,10.43-3.35,13.7-8,3.26-4.66,4.9-10.2,4.9-16.63v-88.86c0-2.2,1.02-3.3,3.08-3.3h18.22ZM45.41,60.6h-18.22c-2.05,0-3.08-1.1-3.08-3.3v-16.76c0-.85.3-1.56.9-2.16.6-.59,1.33-.89,2.18-.89h18.22c.85,0,1.58.3,2.18.89.6.6.9,1.31.9,2.16v16.76c0,2.2-1.03,3.3-3.08,3.3Z"/><path class="cls-2" d="M148.49,168.5h-18.22c-2.05,0-3.08-1.02-3.08-3.05v-2.79c-7.61,4.23-15.83,6.35-24.62,6.35-6.77,0-13.08-1.27-18.92-3.81-5.84-2.54-10.96-6.05-15.36-10.54-4.4-4.48-7.87-9.69-10.41-15.61-2.54-5.92-3.81-12.35-3.81-19.29s1.27-13.16,3.81-19.17c2.54-6.01,6.01-11.25,10.41-15.74,4.4-4.48,9.52-8,15.36-10.54,5.84-2.54,12.14-3.81,18.92-3.81,8.97,0,17.18,2.26,24.62,6.78v-3.26c0-.83.26-1.54.77-2.13.51-.59,1.28-.88,2.31-.88h18.22c.85,0,1.58.3,2.18.89.6.6.9,1.31.9,2.16v91.4c0,2.03-1.03,3.05-3.08,3.05ZM78.45,119.62c0,6.81,2.33,12.64,6.98,17.48,4.65,4.85,10.37,7.27,17.14,7.27,3.21,0,6.26-.63,9.14-1.91,2.88-1.28,5.46-2.98,7.74-5.11,2.29-2.13,4.1-4.63,5.46-7.52,1.35-2.89,2.12-5.95,2.29-9.19v-1.02c0-3.4-.63-6.63-1.9-9.7-1.27-3.06-3.05-5.74-5.33-8.04-2.29-2.3-4.91-4.08-7.87-5.36-2.96-1.28-6.14-1.92-9.52-1.92s-6.56.64-9.52,1.92c-2.96,1.28-5.5,3.06-7.62,5.36-2.12,2.3-3.81,4.97-5.08,8.04s-1.9,6.3-1.9,9.7Z"/><path class="cls-2" d="M182.29,168.5h-18.02c-2.2,0-3.3-1.02-3.3-3.05v-91.4c0-.85.29-1.56.89-2.16.59-.59,1.4-.89,2.41-.89h18.02c.85,0,1.56.3,2.16.89.59.6.89,1.31.89,2.16v3.55c3.55-2.03,7.36-3.64,11.43-4.82,4.06-1.18,8.29-1.78,12.69-1.78,2.03.17,3.05,1.36,3.05,3.55v17.77c-.34,2.2-1.36,3.3-3.05,3.3-3.22,0-6.26.6-9.14,1.78-2.88,1.19-5.42,2.88-7.62,5.08-2.2,2.2-3.98,4.74-5.33,7.62-1.36,2.88-2.03,6.01-2.03,9.39v45.95c0,2.03-1.01,3.05-3.05,3.05Z"/><path class="cls-2" d="M336.9,160.79h-2.74v7.76h-2.39v-7.76h-2.74v-1.87h7.86v1.87ZM349.3,168.55h-2.25v-6.83h-.05l-2.48,6.83h-1.61l-2.48-6.83h-.05v6.83h-2.25v-9.64h3.18l2.41,6.34,2.41-6.34h3.16v9.64Z"/></svg>