<svg width="768" height="154" viewBox="0 0 768 154" fill="none" xmlns="http://www.w3.org/2000/svg">
<mask id="path-1-outside-1_406_2" maskUnits="userSpaceOnUse" x="8" y="19" width="752" height="103" fill="black">
<rect fill="white" x="8" y="19" width="752" height="103"/>
<path d="M9.344 119V34.52H37.12L60.672 98.136H61.312L84.352 34.52H110.848V119H93.312L94.464 53.208H93.056L67.456 119H52.096L26.88 53.208H25.472L26.624 119H9.344ZM151.482 120.792C143.631 120.792 137.701 118.147 133.69 112.856C129.765 107.48 127.802 99.3307 127.802 88.408V51.8H146.234V86.104C146.234 92.6747 147.215 97.5813 149.178 100.824C151.141 103.981 154.127 105.56 158.138 105.56C160.527 105.56 162.618 104.963 164.41 103.768C166.202 102.573 167.738 100.909 169.018 98.776C170.298 96.6427 171.237 94.1253 171.834 91.224C172.517 88.3227 172.901 85.208 172.986 81.88V51.8H191.418V91.608V119H176.57L176.442 98.008H174.138C172.858 103.299 171.237 107.651 169.274 111.064C167.397 114.392 164.965 116.867 161.978 118.488C159.077 120.024 155.578 120.792 151.482 120.792ZM208.323 119V78.296V51.8H223.427L223.299 71.896H225.859C226.968 67.032 228.547 62.9787 230.595 59.736C232.643 56.4933 235.203 54.0613 238.275 52.44C241.432 50.8187 245.144 50.008 249.411 50.008C257.176 50.008 263.064 52.7387 267.075 58.2C271.171 63.6613 273.219 72.2373 273.219 83.928V119H254.659V85.976C254.659 78.808 253.592 73.6027 251.459 70.36C249.411 67.032 246.382 65.368 242.371 65.368C238.958 65.368 236.099 66.4347 233.795 68.568C231.491 70.7013 229.742 73.5173 228.547 77.016C227.438 80.4293 226.84 84.2693 226.755 88.536V119H208.323ZM313.521 120.792C307.889 120.792 302.94 119.341 298.673 116.44C294.492 113.539 291.249 109.443 288.945 104.152C286.641 98.8613 285.489 92.5893 285.489 85.336C285.489 78.5093 286.513 72.4507 288.561 67.16C290.609 61.8693 293.638 57.7307 297.649 54.744C301.66 51.7573 306.652 50.264 312.625 50.264C316.977 50.264 320.646 51.0747 323.633 52.696C326.62 54.3173 329.052 56.7067 330.929 59.864C332.892 62.936 334.428 66.648 335.537 71H338.481C337.884 68.2693 337.329 65.624 336.817 63.064C336.39 60.4187 336.049 57.9013 335.793 55.512C335.537 53.1227 335.409 51.032 335.409 49.24V27.48H353.841V85.976V119H338.481V99.544H335.921C334.982 104.323 333.532 108.291 331.569 111.448C329.606 114.605 327.089 116.952 324.017 118.488C321.03 120.024 317.532 120.792 313.521 120.792ZM319.665 105.688C322.481 105.688 324.87 105.091 326.833 103.896C328.796 102.701 330.417 101.165 331.697 99.288C332.977 97.3253 333.916 95.2347 334.513 93.016C335.11 90.712 335.409 88.5787 335.409 86.616V84.184C335.409 82.5627 335.153 80.8987 334.641 79.192C334.214 77.4 333.574 75.6507 332.721 73.944C331.868 72.2373 330.801 70.744 329.521 69.464C328.241 68.0987 326.748 67.032 325.041 66.264C323.334 65.496 321.457 65.112 319.409 65.112C316.337 65.112 313.734 65.9653 311.601 67.672C309.468 69.3787 307.804 71.768 306.609 74.84C305.414 77.8267 304.817 81.3253 304.817 85.336C304.817 89.432 305.414 93.016 306.609 96.088C307.889 99.16 309.638 101.549 311.857 103.256C314.076 104.877 316.678 105.688 319.665 105.688ZM401.287 120.792C394.546 120.792 388.615 119.469 383.495 116.824C378.375 114.093 374.364 110.125 371.463 104.92C368.562 99.6293 367.111 93.0587 367.111 85.208C367.111 77.3573 368.562 70.8293 371.463 65.624C374.45 60.4187 378.503 56.536 383.623 53.976C388.828 51.3307 394.716 50.008 401.287 50.008C408.028 50.008 413.959 51.3307 419.079 53.976C424.284 56.6213 428.338 60.5893 431.239 65.88C434.226 71.0853 435.719 77.6133 435.719 85.464C435.719 93.4 434.183 100.013 431.111 105.304C428.124 110.509 424.028 114.392 418.823 116.952C413.703 119.512 407.858 120.792 401.287 120.792ZM401.927 107.096C405.255 107.096 408.028 106.328 410.247 104.792C412.551 103.256 414.258 100.952 415.367 97.88C416.562 94.7227 417.159 90.9253 417.159 86.488C417.159 81.7947 416.519 77.8267 415.239 74.584C414.044 71.256 412.252 68.7387 409.863 67.032C407.474 65.24 404.444 64.344 400.775 64.344C397.618 64.344 394.887 65.112 392.583 66.648C390.279 68.0987 388.53 70.4027 387.335 73.56C386.14 76.632 385.543 80.4293 385.543 84.952C385.543 92.2053 386.994 97.7093 389.895 101.464C392.796 105.219 396.807 107.096 401.927 107.096ZM492.147 95.192V80.728H511.475C517.619 80.728 522.227 79.4907 525.299 77.016C528.371 74.456 529.907 70.2747 529.907 64.472C529.907 59.352 528.456 55.4693 525.555 52.824C522.739 50.0933 518.344 48.728 512.371 48.728H492.147V34.52H512.883C518.344 34.52 523.251 35.16 527.603 36.44C532.04 37.72 535.795 39.64 538.867 42.2C542.024 44.6747 544.414 47.832 546.035 51.672C547.656 55.4267 548.467 59.864 548.467 64.984C548.467 71.5547 546.974 77.1013 543.987 81.624C541 86.0613 536.563 89.432 530.675 91.736C524.872 94.04 517.619 95.192 508.915 95.192H492.147ZM479.219 119V34.52H497.651V119H479.219ZM560.823 119V51.8H579.255V119H560.823ZM575.927 42.584H561.847L571.447 20.952H589.751L575.927 42.584ZM589.542 119L611.814 85.336L589.542 51.8H610.79L623.078 77.144H625.254L637.542 51.8H658.662L636.39 85.336L658.918 119H637.798L625.254 93.528H623.078L610.79 119H589.542ZM697.43 120.792C691.883 120.792 686.934 120.024 682.582 118.488C678.315 116.952 674.689 114.733 671.702 111.832C668.715 108.931 666.411 105.347 664.79 101.08C663.254 96.8133 662.486 91.992 662.486 86.616C662.486 81.3253 663.211 76.4613 664.662 72.024C666.198 67.5013 668.417 63.6187 671.318 60.376C674.219 57.048 677.761 54.488 681.942 52.696C686.123 50.904 690.859 50.008 696.15 50.008C701.27 50.008 705.835 50.8613 709.846 52.568C713.857 54.1893 717.185 56.664 719.83 59.992C722.561 63.32 724.523 67.416 725.718 72.28C726.998 77.0587 727.467 82.5627 727.126 88.792L674.39 89.304V79.192L716.502 78.808L709.974 83.928C710.571 79.4053 710.273 75.6933 709.078 72.792C707.883 69.8907 706.134 67.7573 703.83 66.392C701.611 65.0267 699.137 64.344 696.406 64.344C693.163 64.344 690.305 65.1973 687.83 66.904C685.355 68.6107 683.435 71.128 682.07 74.456C680.705 77.6987 680.022 81.624 680.022 86.232C680.022 93.4853 681.601 98.8187 684.758 102.232C688.001 105.645 692.225 107.352 697.43 107.352C699.819 107.352 701.825 107.053 703.446 106.456C705.153 105.773 706.518 104.92 707.542 103.896C708.651 102.872 709.505 101.72 710.102 100.44C710.785 99.16 711.339 97.88 711.766 96.6L727.766 100.056C726.998 103.213 725.846 106.072 724.31 108.632C722.859 111.107 720.897 113.283 718.422 115.16C715.947 116.952 712.961 118.317 709.462 119.256C706.049 120.28 702.038 120.792 697.43 120.792ZM740.573 119V27.48H758.749V119H740.573Z"/>
</mask>
<path d="M9.344 119V34.52H37.12L60.672 98.136H61.312L84.352 34.52H110.848V119H93.312L94.464 53.208H93.056L67.456 119H52.096L26.88 53.208H25.472L26.624 119H9.344ZM151.482 120.792C143.631 120.792 137.701 118.147 133.69 112.856C129.765 107.48 127.802 99.3307 127.802 88.408V51.8H146.234V86.104C146.234 92.6747 147.215 97.5813 149.178 100.824C151.141 103.981 154.127 105.56 158.138 105.56C160.527 105.56 162.618 104.963 164.41 103.768C166.202 102.573 167.738 100.909 169.018 98.776C170.298 96.6427 171.237 94.1253 171.834 91.224C172.517 88.3227 172.901 85.208 172.986 81.88V51.8H191.418V91.608V119H176.57L176.442 98.008H174.138C172.858 103.299 171.237 107.651 169.274 111.064C167.397 114.392 164.965 116.867 161.978 118.488C159.077 120.024 155.578 120.792 151.482 120.792ZM208.323 119V78.296V51.8H223.427L223.299 71.896H225.859C226.968 67.032 228.547 62.9787 230.595 59.736C232.643 56.4933 235.203 54.0613 238.275 52.44C241.432 50.8187 245.144 50.008 249.411 50.008C257.176 50.008 263.064 52.7387 267.075 58.2C271.171 63.6613 273.219 72.2373 273.219 83.928V119H254.659V85.976C254.659 78.808 253.592 73.6027 251.459 70.36C249.411 67.032 246.382 65.368 242.371 65.368C238.958 65.368 236.099 66.4347 233.795 68.568C231.491 70.7013 229.742 73.5173 228.547 77.016C227.438 80.4293 226.84 84.2693 226.755 88.536V119H208.323ZM313.521 120.792C307.889 120.792 302.94 119.341 298.673 116.44C294.492 113.539 291.249 109.443 288.945 104.152C286.641 98.8613 285.489 92.5893 285.489 85.336C285.489 78.5093 286.513 72.4507 288.561 67.16C290.609 61.8693 293.638 57.7307 297.649 54.744C301.66 51.7573 306.652 50.264 312.625 50.264C316.977 50.264 320.646 51.0747 323.633 52.696C326.62 54.3173 329.052 56.7067 330.929 59.864C332.892 62.936 334.428 66.648 335.537 71H338.481C337.884 68.2693 337.329 65.624 336.817 63.064C336.39 60.4187 336.049 57.9013 335.793 55.512C335.537 53.1227 335.409 51.032 335.409 49.24V27.48H353.841V85.976V119H338.481V99.544H335.921C334.982 104.323 333.532 108.291 331.569 111.448C329.606 114.605 327.089 116.952 324.017 118.488C321.03 120.024 317.532 120.792 313.521 120.792ZM319.665 105.688C322.481 105.688 324.87 105.091 326.833 103.896C328.796 102.701 330.417 101.165 331.697 99.288C332.977 97.3253 333.916 95.2347 334.513 93.016C335.11 90.712 335.409 88.5787 335.409 86.616V84.184C335.409 82.5627 335.153 80.8987 334.641 79.192C334.214 77.4 333.574 75.6507 332.721 73.944C331.868 72.2373 330.801 70.744 329.521 69.464C328.241 68.0987 326.748 67.032 325.041 66.264C323.334 65.496 321.457 65.112 319.409 65.112C316.337 65.112 313.734 65.9653 311.601 67.672C309.468 69.3787 307.804 71.768 306.609 74.84C305.414 77.8267 304.817 81.3253 304.817 85.336C304.817 89.432 305.414 93.016 306.609 96.088C307.889 99.16 309.638 101.549 311.857 103.256C314.076 104.877 316.678 105.688 319.665 105.688ZM401.287 120.792C394.546 120.792 388.615 119.469 383.495 116.824C378.375 114.093 374.364 110.125 371.463 104.92C368.562 99.6293 367.111 93.0587 367.111 85.208C367.111 77.3573 368.562 70.8293 371.463 65.624C374.45 60.4187 378.503 56.536 383.623 53.976C388.828 51.3307 394.716 50.008 401.287 50.008C408.028 50.008 413.959 51.3307 419.079 53.976C424.284 56.6213 428.338 60.5893 431.239 65.88C434.226 71.0853 435.719 77.6133 435.719 85.464C435.719 93.4 434.183 100.013 431.111 105.304C428.124 110.509 424.028 114.392 418.823 116.952C413.703 119.512 407.858 120.792 401.287 120.792ZM401.927 107.096C405.255 107.096 408.028 106.328 410.247 104.792C412.551 103.256 414.258 100.952 415.367 97.88C416.562 94.7227 417.159 90.9253 417.159 86.488C417.159 81.7947 416.519 77.8267 415.239 74.584C414.044 71.256 412.252 68.7387 409.863 67.032C407.474 65.24 404.444 64.344 400.775 64.344C397.618 64.344 394.887 65.112 392.583 66.648C390.279 68.0987 388.53 70.4027 387.335 73.56C386.14 76.632 385.543 80.4293 385.543 84.952C385.543 92.2053 386.994 97.7093 389.895 101.464C392.796 105.219 396.807 107.096 401.927 107.096ZM492.147 95.192V80.728H511.475C517.619 80.728 522.227 79.4907 525.299 77.016C528.371 74.456 529.907 70.2747 529.907 64.472C529.907 59.352 528.456 55.4693 525.555 52.824C522.739 50.0933 518.344 48.728 512.371 48.728H492.147V34.52H512.883C518.344 34.52 523.251 35.16 527.603 36.44C532.04 37.72 535.795 39.64 538.867 42.2C542.024 44.6747 544.414 47.832 546.035 51.672C547.656 55.4267 548.467 59.864 548.467 64.984C548.467 71.5547 546.974 77.1013 543.987 81.624C541 86.0613 536.563 89.432 530.675 91.736C524.872 94.04 517.619 95.192 508.915 95.192H492.147ZM479.219 119V34.52H497.651V119H479.219ZM560.823 119V51.8H579.255V119H560.823ZM575.927 42.584H561.847L571.447 20.952H589.751L575.927 42.584ZM589.542 119L611.814 85.336L589.542 51.8H610.79L623.078 77.144H625.254L637.542 51.8H658.662L636.39 85.336L658.918 119H637.798L625.254 93.528H623.078L610.79 119H589.542ZM697.43 120.792C691.883 120.792 686.934 120.024 682.582 118.488C678.315 116.952 674.689 114.733 671.702 111.832C668.715 108.931 666.411 105.347 664.79 101.08C663.254 96.8133 662.486 91.992 662.486 86.616C662.486 81.3253 663.211 76.4613 664.662 72.024C666.198 67.5013 668.417 63.6187 671.318 60.376C674.219 57.048 677.761 54.488 681.942 52.696C686.123 50.904 690.859 50.008 696.15 50.008C701.27 50.008 705.835 50.8613 709.846 52.568C713.857 54.1893 717.185 56.664 719.83 59.992C722.561 63.32 724.523 67.416 725.718 72.28C726.998 77.0587 727.467 82.5627 727.126 88.792L674.39 89.304V79.192L716.502 78.808L709.974 83.928C710.571 79.4053 710.273 75.6933 709.078 72.792C707.883 69.8907 706.134 67.7573 703.83 66.392C701.611 65.0267 699.137 64.344 696.406 64.344C693.163 64.344 690.305 65.1973 687.83 66.904C685.355 68.6107 683.435 71.128 682.07 74.456C680.705 77.6987 680.022 81.624 680.022 86.232C680.022 93.4853 681.601 98.8187 684.758 102.232C688.001 105.645 692.225 107.352 697.43 107.352C699.819 107.352 701.825 107.053 703.446 106.456C705.153 105.773 706.518 104.92 707.542 103.896C708.651 102.872 709.505 101.72 710.102 100.44C710.785 99.16 711.339 97.88 711.766 96.6L727.766 100.056C726.998 103.213 725.846 106.072 724.31 108.632C722.859 111.107 720.897 113.283 718.422 115.16C715.947 116.952 712.961 118.317 709.462 119.256C706.049 120.28 702.038 120.792 697.43 120.792ZM740.573 119V27.48H758.749V119H740.573Z" fill="white"/>
<path d="M9.344 119H8.344V120H9.344V119ZM9.344 34.52V33.52H8.344V34.52H9.344ZM37.12 34.52L38.0578 34.1728L37.8161 33.52H37.12V34.52ZM60.672 98.136L59.7342 98.4832L59.9759 99.136H60.672V98.136ZM61.312 98.136V99.136H62.0134L62.2522 98.4765L61.312 98.136ZM84.352 34.52V33.52H83.6506L83.4118 34.1795L84.352 34.52ZM110.848 34.52H111.848V33.52H110.848V34.52ZM110.848 119V120H111.848V119H110.848ZM93.312 119L92.3122 118.982L92.2943 120H93.312V119ZM94.464 53.208L95.4639 53.2255L95.4817 52.208H94.464V53.208ZM93.056 53.208V52.208H92.3721L92.1241 52.8454L93.056 53.208ZM67.456 119V120H68.1399L68.3879 119.363L67.456 119ZM52.096 119L51.1622 119.358L51.4083 120H52.096V119ZM26.88 53.208L27.8138 52.8501L27.5677 52.208H26.88V53.208ZM25.472 53.208V52.208H24.4543L24.4722 53.2255L25.472 53.208ZM26.624 119V120H27.6417L27.6238 118.982L26.624 119ZM9.344 119H10.344V34.52H9.344H8.344V119H9.344ZM9.344 34.52V35.52H37.12V34.52V33.52H9.344V34.52ZM37.12 34.52L36.1822 34.8672L59.7342 98.4832L60.672 98.136L61.6098 97.7888L38.0578 34.1728L37.12 34.52ZM60.672 98.136V99.136H61.312V98.136V97.136H60.672V98.136ZM61.312 98.136L62.2522 98.4765L85.2922 34.8605L84.352 34.52L83.4118 34.1795L60.3718 97.7955L61.312 98.136ZM84.352 34.52V35.52H110.848V34.52V33.52H84.352V34.52ZM110.848 34.52H109.848V119H110.848H111.848V34.52H110.848ZM110.848 119V118H93.312V119V120H110.848V119ZM93.312 119L94.3119 119.018L95.4639 53.2255L94.464 53.208L93.4642 53.1905L92.3122 118.982L93.312 119ZM94.464 53.208V52.208H93.056V53.208V54.208H94.464V53.208ZM93.056 53.208L92.1241 52.8454L66.5241 118.637L67.456 119L68.3879 119.363L93.9879 53.5706L93.056 53.208ZM67.456 119V118H52.096V119V120H67.456V119ZM52.096 119L53.0298 118.642L27.8138 52.8501L26.88 53.208L25.9462 53.5659L51.1622 119.358L52.096 119ZM26.88 53.208V52.208H25.472V53.208V54.208H26.88V53.208ZM25.472 53.208L24.4722 53.2255L25.6242 119.018L26.624 119L27.6238 118.982L26.4718 53.1905L25.472 53.208ZM26.624 119V118H9.344V119V120H26.624V119ZM133.69 112.856L132.882 113.446L132.888 113.453L132.893 113.46L133.69 112.856ZM127.802 51.8V50.8H126.802V51.8H127.802ZM146.234 51.8H147.234V50.8H146.234V51.8ZM149.178 100.824L148.322 101.342L148.329 101.352L149.178 100.824ZM164.41 103.768L164.965 104.6L164.41 103.768ZM169.018 98.776L168.161 98.2615L169.018 98.776ZM171.834 91.224L170.861 90.995L170.857 91.0086L170.855 91.0223L171.834 91.224ZM172.986 81.88L173.986 81.9056L173.986 81.8928V81.88H172.986ZM172.986 51.8V50.8H171.986V51.8H172.986ZM191.418 51.8H192.418V50.8H191.418V51.8ZM191.418 119V120H192.418V119H191.418ZM176.57 119L175.57 119.006L175.576 120H176.57V119ZM176.442 98.008L177.442 98.0019L177.436 97.008H176.442V98.008ZM174.138 98.008V97.008H173.351L173.166 97.7729L174.138 98.008ZM169.274 111.064L168.407 110.566L168.403 110.573L169.274 111.064ZM161.978 118.488L162.446 119.372L162.455 119.367L161.978 118.488ZM151.482 120.792V119.792C143.88 119.792 138.273 117.246 134.487 112.252L133.69 112.856L132.893 113.46C137.129 119.047 143.383 121.792 151.482 121.792V120.792ZM133.69 112.856L134.498 112.266C130.755 107.14 128.802 99.2428 128.802 88.408H127.802H126.802C126.802 99.4186 128.775 107.82 132.882 113.446L133.69 112.856ZM127.802 88.408H128.802V51.8H127.802H126.802V88.408H127.802ZM127.802 51.8V52.8H146.234V51.8V50.8H127.802V51.8ZM146.234 51.8H145.234V86.104H146.234H147.234V51.8H146.234ZM146.234 86.104H145.234C145.234 92.74 146.219 97.8664 148.322 101.342L149.178 100.824L150.034 100.306C148.212 97.2963 147.234 92.6093 147.234 86.104H146.234ZM149.178 100.824L148.329 101.352C150.491 104.83 153.814 106.56 158.138 106.56V105.56V104.56C154.44 104.56 151.791 103.133 150.027 100.296L149.178 100.824ZM158.138 105.56V106.56C160.702 106.56 162.991 105.916 164.965 104.6L164.41 103.768L163.855 102.936C162.245 104.009 160.352 104.56 158.138 104.56V105.56ZM164.41 103.768L164.965 104.6C166.898 103.311 168.531 101.531 169.875 99.2905L169.018 98.776L168.161 98.2615C166.945 100.288 165.506 101.835 163.855 102.936L164.41 103.768ZM169.018 98.776L169.875 99.2905C171.223 97.0441 172.198 94.4169 172.813 91.4257L171.834 91.224L170.855 91.0223C170.276 93.8338 169.373 96.2413 168.161 98.2615L169.018 98.776ZM171.834 91.224L172.807 91.453C173.507 88.4778 173.899 85.2943 173.986 81.9056L172.986 81.88L171.986 81.8544C171.903 85.1217 171.526 88.1676 170.861 90.995L171.834 91.224ZM172.986 81.88H173.986V51.8H172.986H171.986V81.88H172.986ZM172.986 51.8V52.8H191.418V51.8V50.8H172.986V51.8ZM191.418 51.8H190.418V91.608H191.418H192.418V51.8H191.418ZM191.418 91.608H190.418V119H191.418H192.418V91.608H191.418ZM191.418 119V118H176.57V119V120H191.418V119ZM176.57 119L177.57 118.994L177.442 98.0019L176.442 98.008L175.442 98.0141L175.57 119.006L176.57 119ZM176.442 98.008V97.008H174.138V98.008V99.008H176.442V98.008ZM174.138 98.008L173.166 97.7729C171.901 103.004 170.308 107.259 168.407 110.566L169.274 111.064L170.141 111.562C172.165 108.042 173.815 103.594 175.11 98.2431L174.138 98.008ZM169.274 111.064L168.403 110.573C166.606 113.758 164.303 116.088 161.501 117.609L161.978 118.488L162.455 119.367C165.627 117.645 168.187 115.026 170.145 111.555L169.274 111.064ZM161.978 118.488L161.51 117.604C158.784 119.047 155.455 119.792 151.482 119.792V120.792V121.792C155.701 121.792 159.369 121.001 162.446 119.372L161.978 118.488ZM208.323 119H207.323V120H208.323V119ZM208.323 51.8V50.8H207.323V51.8H208.323ZM223.427 51.8L224.427 51.8064L224.433 50.8H223.427V51.8ZM223.299 71.896L222.299 71.8896L222.293 72.896H223.299V71.896ZM225.859 71.896V72.896H226.657L226.834 72.1184L225.859 71.896ZM230.595 59.736L231.44 60.27L230.595 59.736ZM238.275 52.44L237.818 51.5504L237.808 51.5556L238.275 52.44ZM267.075 58.2L266.269 58.7919L266.275 58.8L267.075 58.2ZM273.219 119V120H274.219V119H273.219ZM254.659 119H253.659V120H254.659V119ZM251.459 70.36L250.607 70.8841L250.615 70.897L250.624 70.9096L251.459 70.36ZM228.547 77.016L227.601 76.6929L227.598 76.6999L227.596 76.7069L228.547 77.016ZM226.755 88.536L225.755 88.516L225.755 88.526V88.536H226.755ZM226.755 119V120H227.755V119H226.755ZM208.323 119H209.323V78.296H208.323H207.323V119H208.323ZM208.323 78.296H209.323V51.8H208.323H207.323V78.296H208.323ZM208.323 51.8V52.8H223.427V51.8V50.8H208.323V51.8ZM223.427 51.8L222.427 51.7936L222.299 71.8896L223.299 71.896L224.299 71.9024L224.427 51.8064L223.427 51.8ZM223.299 71.896V72.896H225.859V71.896V70.896H223.299V71.896ZM225.859 71.896L226.834 72.1184C227.925 67.3334 229.468 63.3929 231.44 60.27L230.595 59.736L229.75 59.202C227.626 62.5644 226.011 66.7306 224.884 71.6736L225.859 71.896ZM230.595 59.736L231.44 60.27C233.405 57.1594 235.84 54.8558 238.742 53.3244L238.275 52.44L237.808 51.5556C234.566 53.2669 231.881 55.8272 229.75 59.202L230.595 59.736ZM238.275 52.44L238.732 53.3296C241.722 51.7941 245.271 51.008 249.411 51.008V50.008V49.008C245.017 49.008 241.143 49.8433 237.818 51.5504L238.275 52.44ZM249.411 50.008V51.008C256.911 51.008 262.476 53.6272 266.269 58.7919L267.075 58.2L267.881 57.6081C263.652 51.8501 257.441 49.008 249.411 49.008V50.008ZM267.075 58.2L266.275 58.8C270.177 64.003 272.219 72.315 272.219 83.928H273.219H274.219C274.219 72.1596 272.165 63.3196 267.875 57.6L267.075 58.2ZM273.219 83.928H272.219V119H273.219H274.219V83.928H273.219ZM273.219 119V118H254.659V119V120H273.219V119ZM254.659 119H255.659V85.976H254.659H253.659V119H254.659ZM254.659 85.976H255.659C255.659 78.7545 254.593 73.3041 252.294 69.8104L251.459 70.36L250.624 70.9096C252.592 73.9012 253.659 78.8615 253.659 85.976H254.659ZM251.459 70.36L252.311 69.8359C250.075 66.2028 246.718 64.368 242.371 64.368V65.368V66.368C246.046 66.368 248.747 67.8612 250.607 70.8841L251.459 70.36ZM242.371 65.368V64.368C238.73 64.368 235.621 65.5142 233.116 67.8342L233.795 68.568L234.474 69.3018C236.577 67.3551 239.186 66.368 242.371 66.368V65.368ZM233.795 68.568L233.116 67.8342C230.67 70.0986 228.839 73.0652 227.601 76.6929L228.547 77.016L229.493 77.3391C230.644 73.9695 232.312 71.304 234.474 69.3018L233.795 68.568ZM228.547 77.016L227.596 76.7069C226.451 80.2294 225.842 84.1691 225.755 88.516L226.755 88.536L227.755 88.556C227.839 84.3696 228.424 80.6293 229.498 77.3251L228.547 77.016ZM226.755 88.536H225.755V119H226.755H227.755V88.536H226.755ZM226.755 119V118H208.323V119V120H226.755V119ZM298.673 116.44L298.103 117.262L298.111 117.267L298.673 116.44ZM288.945 104.152L289.862 103.753L288.945 104.152ZM288.561 67.16L287.628 66.799L288.561 67.16ZM297.649 54.744L297.052 53.942L297.649 54.744ZM330.929 59.864L330.069 60.3751L330.078 60.3889L330.086 60.4024L330.929 59.864ZM335.537 71L334.568 71.247L334.76 72H335.537V71ZM338.481 71V72H339.723L339.458 70.7863L338.481 71ZM336.817 63.064L335.83 63.2232L335.833 63.2417L335.836 63.2601L336.817 63.064ZM335.793 55.512L334.799 55.6185L335.793 55.512ZM335.409 27.48V26.48H334.409V27.48H335.409ZM353.841 27.48H354.841V26.48H353.841V27.48ZM353.841 119V120H354.841V119H353.841ZM338.481 119H337.481V120H338.481V119ZM338.481 99.544H339.481V98.544H338.481V99.544ZM335.921 99.544V98.544H335.098L334.94 99.3513L335.921 99.544ZM331.569 111.448L330.72 110.92L331.569 111.448ZM324.017 118.488L323.57 117.594L323.56 117.599L324.017 118.488ZM326.833 103.896L327.353 104.75L326.833 103.896ZM331.697 99.288L332.523 99.8513L332.529 99.8429L332.535 99.8343L331.697 99.288ZM334.513 93.016L335.479 93.276L335.481 93.267L334.513 93.016ZM334.641 79.192L333.668 79.4236L333.675 79.4517L333.683 79.4793L334.641 79.192ZM332.721 73.944L331.827 74.3912L332.721 73.944ZM329.521 69.464L328.791 70.1479L328.802 70.1597L328.814 70.1711L329.521 69.464ZM325.041 66.264L324.631 67.1759L325.041 66.264ZM311.601 67.672L312.226 68.4529L311.601 67.672ZM306.609 74.84L307.538 75.2114L307.541 75.2024L306.609 74.84ZM306.609 96.088L305.677 96.4504L305.681 96.4616L305.686 96.4726L306.609 96.088ZM311.857 103.256L311.247 104.049L311.257 104.056L311.267 104.063L311.857 103.256ZM313.521 120.792V119.792C308.07 119.792 303.321 118.391 299.235 115.613L298.673 116.44L298.111 117.267C302.558 120.291 307.708 121.792 313.521 121.792V120.792ZM298.673 116.44L299.243 115.618C295.234 112.837 292.102 108.897 289.862 103.753L288.945 104.152L288.028 104.551C290.396 109.989 293.749 114.241 298.103 117.262L298.673 116.44ZM288.945 104.152L289.862 103.753C287.625 98.6159 286.489 92.4861 286.489 85.336H285.489H284.489C284.489 92.6926 285.657 99.1067 288.028 104.551L288.945 104.152ZM285.489 85.336H286.489C286.489 78.6083 287.498 72.6757 289.494 67.521L288.561 67.16L287.628 66.799C285.528 72.2256 284.489 78.4103 284.489 85.336H285.489ZM288.561 67.16L289.494 67.521C291.483 62.3817 294.406 58.4056 298.246 55.546L297.649 54.744L297.052 53.942C292.87 57.0557 289.735 61.3569 287.628 66.799L288.561 67.16ZM297.649 54.744L298.246 55.546C302.053 52.7115 306.824 51.264 312.625 51.264V50.264V49.264C306.48 49.264 301.267 50.8032 297.052 53.942L297.649 54.744ZM312.625 50.264V51.264C316.856 51.264 320.351 52.0523 323.156 53.5749L323.633 52.696L324.11 51.8171C320.942 50.0971 317.098 49.264 312.625 49.264V50.264ZM323.633 52.696L323.156 53.5749C325.972 55.1033 328.276 57.3596 330.069 60.3751L330.929 59.864L331.789 59.3529C329.827 56.0538 327.268 53.5313 324.11 51.8171L323.633 52.696ZM330.929 59.864L330.086 60.4024C331.98 63.3666 333.479 66.9752 334.568 71.247L335.537 71L336.506 70.753C335.376 66.3208 333.803 62.5054 331.772 59.3256L330.929 59.864ZM335.537 71V72H338.481V71V70H335.537V71ZM338.481 71L339.458 70.7863C338.862 68.0611 338.308 65.4216 337.798 62.8679L336.817 63.064L335.836 63.2601C336.35 65.8264 336.906 68.4776 337.504 71.2137L338.481 71ZM336.817 63.064L337.804 62.9048C337.38 60.275 337.041 57.7753 336.787 55.4055L335.793 55.512L334.799 55.6185C335.057 58.0274 335.401 60.5624 335.83 63.2232L336.817 63.064ZM335.793 55.512L336.787 55.4055C336.534 53.0404 336.409 50.9868 336.409 49.24H335.409H334.409C334.409 51.0772 334.54 53.2049 334.799 55.6185L335.793 55.512ZM335.409 49.24H336.409V27.48H335.409H334.409V49.24H335.409ZM335.409 27.48V28.48H353.841V27.48V26.48H335.409V27.48ZM353.841 27.48H352.841V85.976H353.841H354.841V27.48H353.841ZM353.841 85.976H352.841V119H353.841H354.841V85.976H353.841ZM353.841 119V118H338.481V119V120H353.841V119ZM338.481 119H339.481V99.544H338.481H337.481V119H338.481ZM338.481 99.544V98.544H335.921V99.544V100.544H338.481V99.544ZM335.921 99.544L334.94 99.3513C334.018 104.046 332.602 107.892 330.72 110.92L331.569 111.448L332.418 111.976C334.461 108.689 335.947 104.599 336.902 99.7367L335.921 99.544ZM331.569 111.448L330.72 110.92C328.846 113.934 326.463 116.147 323.57 117.594L324.017 118.488L324.464 119.382C327.715 117.757 330.366 115.277 332.418 111.976L331.569 111.448ZM324.017 118.488L323.56 117.599C320.739 119.049 317.403 119.792 313.521 119.792V120.792V121.792C317.66 121.792 321.321 120.999 324.474 119.377L324.017 118.488ZM319.665 105.688V106.688C322.623 106.688 325.202 106.06 327.353 104.75L326.833 103.896L326.313 103.042C324.539 104.122 322.339 104.688 319.665 104.688V105.688ZM326.833 103.896L327.353 104.75C329.436 103.482 331.162 101.848 332.523 99.8513L331.697 99.288L330.871 98.7247C329.672 100.483 328.155 101.92 326.313 103.042L326.833 103.896ZM331.697 99.288L332.535 99.8343C333.871 97.7853 334.853 95.5982 335.479 93.276L334.513 93.016L333.547 92.756C332.978 94.8711 332.083 96.8654 330.859 98.7417L331.697 99.288ZM334.513 93.016L335.481 93.267C336.095 90.8977 336.409 88.679 336.409 86.616H335.409H334.409C334.409 88.4783 334.125 90.5263 333.545 92.765L334.513 93.016ZM335.409 86.616H336.409V84.184H335.409H334.409V86.616H335.409ZM335.409 84.184H336.409C336.409 82.4562 336.136 80.6954 335.599 78.9046L334.641 79.192L333.683 79.4793C334.17 81.1019 334.409 82.6691 334.409 84.184H335.409ZM334.641 79.192L335.614 78.9604C335.169 77.0911 334.502 75.2696 333.615 73.4968L332.721 73.944L331.827 74.3912C332.647 76.0317 333.26 77.7089 333.668 79.4236L334.641 79.192ZM332.721 73.944L333.615 73.4968C332.717 71.6992 331.588 70.1169 330.228 68.7569L329.521 69.464L328.814 70.1711C330.014 71.3711 331.019 72.7755 331.827 74.3912L332.721 73.944ZM329.521 69.464L330.251 68.7801C328.88 67.3184 327.278 66.1743 325.451 65.3521L325.041 66.264L324.631 67.1759C326.217 67.8897 327.602 68.8789 328.791 70.1479L329.521 69.464ZM325.041 66.264L325.451 65.3521C323.604 64.5207 321.585 64.112 319.409 64.112V65.112V66.112C321.329 66.112 323.065 66.4713 324.631 67.1759L325.041 66.264ZM319.409 65.112V64.112C316.14 64.112 313.309 65.025 310.976 66.8911L311.601 67.672L312.226 68.4529C314.16 66.9057 316.534 66.112 319.409 66.112V65.112ZM311.601 67.672L310.976 66.8911C308.68 68.7285 306.922 71.2753 305.677 74.4775L306.609 74.84L307.541 75.2024C308.685 72.2607 310.256 70.0289 312.226 68.4529L311.601 67.672ZM306.609 74.84L305.681 74.4686C304.429 77.5986 303.817 81.2284 303.817 85.336H304.817H305.817C305.817 81.4223 306.4 78.0547 307.537 75.2114L306.609 74.84ZM304.817 85.336H303.817C303.817 89.527 304.428 93.2386 305.677 96.4504L306.609 96.088L307.541 95.7256C306.401 92.7934 305.817 89.337 305.817 85.336H304.817ZM306.609 96.088L305.686 96.4726C307.02 99.6751 308.866 102.217 311.247 104.049L311.857 103.256L312.467 102.463C310.41 100.882 308.758 98.6449 307.532 95.7034L306.609 96.088ZM311.857 103.256L311.267 104.063C313.672 105.821 316.486 106.688 319.665 106.688V105.688V104.688C316.871 104.688 314.479 103.934 312.447 102.449L311.857 103.256ZM383.495 116.824L383.024 117.706L383.036 117.712L383.495 116.824ZM371.463 104.92L370.586 105.401L370.59 105.407L371.463 104.92ZM371.463 65.624L370.596 65.1263L370.59 65.1371L371.463 65.624ZM383.623 53.976L384.07 54.8704L384.076 54.8675L383.623 53.976ZM419.079 53.976L418.62 54.8644L418.626 54.8675L419.079 53.976ZM431.239 65.88L430.362 66.3608L430.367 66.3693L430.372 66.3777L431.239 65.88ZM431.111 105.304L430.246 104.802L430.244 104.806L431.111 105.304ZM418.823 116.952L418.382 116.055L418.376 116.058L418.823 116.952ZM410.247 104.792L409.692 103.96L409.685 103.965L409.678 103.97L410.247 104.792ZM415.367 97.88L414.432 97.5261L414.429 97.5332L414.426 97.5404L415.367 97.88ZM415.239 74.584L414.298 74.9219L414.303 74.9366L414.309 74.9512L415.239 74.584ZM409.863 67.032L409.263 67.832L409.272 67.839L409.282 67.8457L409.863 67.032ZM392.583 66.648L393.116 67.4942L393.127 67.4873L393.138 67.48L392.583 66.648ZM387.335 73.56L388.267 73.9225L388.27 73.9139L387.335 73.56ZM389.895 101.464L389.104 102.075L389.895 101.464ZM401.287 120.792V119.792C394.678 119.792 388.91 118.496 383.954 115.936L383.495 116.824L383.036 117.712C388.32 120.443 394.413 121.792 401.287 121.792V120.792ZM383.495 116.824L383.966 115.942C379.02 113.304 375.147 109.475 372.336 104.433L371.463 104.92L370.59 105.407C373.582 110.775 377.73 114.883 383.024 117.706L383.495 116.824ZM371.463 104.92L372.34 104.439C369.54 99.3337 368.111 92.9397 368.111 85.208H367.111H366.111C366.111 93.1776 367.583 99.925 370.586 105.401L371.463 104.92ZM367.111 85.208H368.111C368.111 77.4754 369.54 71.1275 372.336 66.1109L371.463 65.624L370.59 65.1371C367.583 70.5312 366.111 77.2393 366.111 85.208H367.111ZM371.463 65.624L372.33 66.1217C375.224 61.0783 379.135 57.338 384.07 54.8704L383.623 53.976L383.176 53.0816C377.871 55.734 373.675 59.759 370.596 65.1263L371.463 65.624ZM383.623 53.976L384.076 54.8675C389.124 52.302 394.854 51.008 401.287 51.008V50.008V49.008C394.579 49.008 388.532 50.3593 383.17 53.0845L383.623 53.976ZM401.287 50.008V51.008C407.896 51.008 413.664 52.3039 418.62 54.8644L419.079 53.976L419.538 53.0876C414.254 50.3574 408.161 49.008 401.287 49.008V50.008ZM419.079 53.976L418.626 54.8675C423.646 57.4185 427.554 61.2403 430.362 66.3608L431.239 65.88L432.116 65.3992C429.121 59.9384 424.923 55.8242 419.532 53.0845L419.079 53.976ZM431.239 65.88L430.372 66.3777C433.249 71.3918 434.719 77.7356 434.719 85.464H435.719H436.719C436.719 77.4911 435.203 70.7788 432.106 65.3823L431.239 65.88ZM435.719 85.464H434.719C434.719 93.2748 433.207 99.7026 430.246 104.802L431.111 105.304L431.976 105.806C435.159 100.324 436.719 93.5252 436.719 85.464H435.719ZM431.111 105.304L430.244 104.806C427.352 109.845 423.402 113.586 418.382 116.055L418.823 116.952L419.264 117.849C424.655 115.198 428.896 111.173 431.978 105.802L431.111 105.304ZM418.823 116.952L418.376 116.058C413.414 118.539 407.725 119.792 401.287 119.792V120.792V121.792C407.99 121.792 413.992 120.485 419.27 117.846L418.823 116.952ZM401.927 107.096V108.096C405.41 108.096 408.395 107.291 410.816 105.614L410.247 104.792L409.678 103.97C407.662 105.365 405.1 106.096 401.927 106.096V107.096ZM410.247 104.792L410.802 105.624C413.314 103.949 415.139 101.456 416.308 98.2196L415.367 97.88L414.426 97.5404C413.376 100.448 411.788 102.563 409.692 103.96L410.247 104.792ZM415.367 97.88L416.302 98.2339C417.551 94.9341 418.159 91.0103 418.159 86.488H417.159H416.159C416.159 90.8404 415.572 94.5112 414.432 97.5261L415.367 97.88ZM417.159 86.488H418.159C418.159 81.7099 417.508 77.6092 416.169 74.2168L415.239 74.584L414.309 74.9512C415.53 78.0441 416.159 81.8795 416.159 86.488H417.159ZM415.239 74.584L416.18 74.2461C414.931 70.7664 413.031 68.0656 410.444 66.2183L409.863 67.032L409.282 67.8457C411.474 69.4117 413.158 71.7456 414.298 74.9219L415.239 74.584ZM409.863 67.032L410.463 66.232C407.864 64.2828 404.61 63.344 400.775 63.344V64.344V65.344C404.278 65.344 407.083 66.1972 409.263 67.832L409.863 67.032ZM400.775 64.344V63.344C397.449 63.344 394.519 64.1556 392.028 65.8159L392.583 66.648L393.138 67.48C395.255 66.0684 397.787 65.344 400.775 65.344V64.344ZM392.583 66.648L392.05 65.8018C389.522 67.3938 387.653 69.895 386.4 73.2061L387.335 73.56L388.27 73.9139C389.407 70.9104 391.036 68.8035 393.116 67.4942L392.583 66.648ZM387.335 73.56L386.403 73.1975C385.15 76.4194 384.543 80.3484 384.543 84.952H385.543H386.543C386.543 80.5103 387.131 76.8446 388.267 73.9224L387.335 73.56ZM385.543 84.952H384.543C384.543 92.3159 386.012 98.0746 389.104 102.075L389.895 101.464L390.686 100.853C387.975 97.3441 386.543 92.0948 386.543 84.952H385.543ZM389.895 101.464L389.104 102.075C392.211 106.097 396.526 108.096 401.927 108.096V107.096V106.096C397.088 106.096 393.382 104.341 390.686 100.853L389.895 101.464ZM492.147 95.192H491.147V96.192H492.147V95.192ZM492.147 80.728V79.728H491.147V80.728H492.147ZM525.299 77.016L525.926 77.7948L525.933 77.7895L525.939 77.7842L525.299 77.016ZM525.555 52.824L524.859 53.5419L524.87 53.5526L524.881 53.563L525.555 52.824ZM492.147 48.728H491.147V49.728H492.147V48.728ZM492.147 34.52V33.52H491.147V34.52H492.147ZM527.603 36.44L527.321 37.3994L527.326 37.4008L527.603 36.44ZM538.867 42.2L538.227 42.9682L538.238 42.9778L538.25 42.9871L538.867 42.2ZM546.035 51.672L545.114 52.061L545.117 52.0684L546.035 51.672ZM543.987 81.624L544.817 82.1824L544.821 82.1751L543.987 81.624ZM530.675 91.736L530.311 90.8047L530.306 90.8066L530.675 91.736ZM479.219 119H478.219V120H479.219V119ZM479.219 34.52V33.52H478.219V34.52H479.219ZM497.651 34.52H498.651V33.52H497.651V34.52ZM497.651 119V120H498.651V119H497.651ZM492.147 95.192H493.147V80.728H492.147H491.147V95.192H492.147ZM492.147 80.728V81.728H511.475V80.728V79.728H492.147V80.728ZM511.475 80.728V81.728C517.727 81.728 522.601 80.4732 525.926 77.7948L525.299 77.016L524.672 76.2372C521.853 78.5081 517.511 79.728 511.475 79.728V80.728ZM525.299 77.016L525.939 77.7842C529.327 74.9607 530.907 70.4334 530.907 64.472H529.907H528.907C528.907 70.1159 527.415 73.9513 524.659 76.2478L525.299 77.016ZM529.907 64.472H530.907C530.907 59.1611 529.396 54.9732 526.229 52.085L525.555 52.824L524.881 53.563C527.516 55.9655 528.907 59.5429 528.907 64.472H529.907ZM525.555 52.824L526.251 52.1061C523.171 49.1194 518.471 47.728 512.371 47.728V48.728V49.728C518.217 49.728 522.307 51.0673 524.859 53.5419L525.555 52.824ZM512.371 48.728V47.728H492.147V48.728V49.728H512.371V48.728ZM492.147 48.728H493.147V34.52H492.147H491.147V48.728H492.147ZM492.147 34.52V35.52H512.883V34.52V33.52H492.147V34.52ZM512.883 34.52V35.52C518.268 35.52 523.077 36.1511 527.321 37.3994L527.603 36.44L527.885 35.4806C523.425 34.1688 518.421 33.52 512.883 33.52V34.52ZM527.603 36.44L527.326 37.4008C531.651 38.6483 535.276 40.5095 538.227 42.9682L538.867 42.2L539.507 41.4318C536.314 38.7704 532.43 36.7916 527.88 35.4792L527.603 36.44ZM538.867 42.2L538.25 42.9871C541.269 45.3528 543.556 48.371 545.114 52.061L546.035 51.672L546.956 51.283C545.272 47.293 542.78 43.9965 539.484 41.4129L538.867 42.2ZM546.035 51.672L545.117 52.0684C546.672 55.6706 547.467 59.9671 547.467 64.984H548.467H549.467C549.467 59.7609 548.64 55.1827 546.953 51.2756L546.035 51.672ZM548.467 64.984H547.467C547.467 71.4008 546.01 76.7456 543.153 81.0729L543.987 81.624L544.821 82.1751C547.937 77.457 549.467 71.7086 549.467 64.984H548.467ZM543.987 81.624L543.157 81.0656C540.304 85.3053 536.045 88.561 530.311 90.8048L530.675 91.736L531.039 92.6672C537.081 90.303 541.697 86.8173 544.817 82.1824L543.987 81.624ZM530.675 91.736L530.306 90.8066C524.657 93.0495 517.539 94.192 508.915 94.192V95.192V96.192C517.699 96.192 525.087 95.0305 531.044 92.6654L530.675 91.736ZM508.915 95.192V94.192H492.147V95.192V96.192H508.915V95.192ZM479.219 119H480.219V34.52H479.219H478.219V119H479.219ZM479.219 34.52V35.52H497.651V34.52V33.52H479.219V34.52ZM497.651 34.52H496.651V119H497.651H498.651V34.52H497.651ZM497.651 119V118H479.219V119V120H497.651V119ZM560.823 119H559.823V120H560.823V119ZM560.823 51.8V50.8H559.823V51.8H560.823ZM579.255 51.8H580.255V50.8H579.255V51.8ZM579.255 119V120H580.255V119H579.255ZM575.927 42.584V43.584H576.475L576.77 43.1225L575.927 42.584ZM561.847 42.584L560.933 42.1784L560.309 43.584H561.847V42.584ZM571.447 20.952V19.952H570.797L570.533 20.5464L571.447 20.952ZM589.751 20.952L590.594 21.4905L591.577 19.952H589.751V20.952ZM560.823 119H561.823V51.8H560.823H559.823V119H560.823ZM560.823 51.8V52.8H579.255V51.8V50.8H560.823V51.8ZM579.255 51.8H578.255V119H579.255H580.255V51.8H579.255ZM579.255 119V118H560.823V119V120H579.255V119ZM575.927 42.584V41.584H561.847V42.584V43.584H575.927V42.584ZM561.847 42.584L562.761 42.9896L572.361 21.3576L571.447 20.952L570.533 20.5464L560.933 42.1784L561.847 42.584ZM571.447 20.952V21.952H589.751V20.952V19.952H571.447V20.952ZM589.751 20.952L588.908 20.4135L575.084 42.0455L575.927 42.584L576.77 43.1225L590.594 21.4905L589.751 20.952ZM589.542 119L588.708 118.448L587.681 120H589.542V119ZM611.814 85.336L612.648 85.8878L613.014 85.3349L612.647 84.7828L611.814 85.336ZM589.542 51.8V50.8H587.677L588.709 52.3532L589.542 51.8ZM610.79 51.8L611.69 51.3637L611.417 50.8H610.79V51.8ZM623.078 77.144L622.178 77.5803L622.452 78.144H623.078V77.144ZM625.254 77.144V78.144H625.88L626.154 77.5803L625.254 77.144ZM637.542 51.8V50.8H636.916L636.642 51.3637L637.542 51.8ZM658.662 51.8L659.495 52.3532L660.527 50.8H658.662V51.8ZM636.39 85.336L635.557 84.7828L635.188 85.3381L635.559 85.8922L636.39 85.336ZM658.918 119V120H660.79L659.749 118.444L658.918 119ZM637.798 119L636.901 119.442L637.176 120H637.798V119ZM625.254 93.528L626.151 93.0862L625.876 92.528H625.254V93.528ZM623.078 93.528V92.528H622.45L622.177 93.0935L623.078 93.528ZM610.79 119V120H611.418L611.691 119.434L610.79 119ZM589.542 119L590.376 119.552L612.648 85.8878L611.814 85.336L610.98 84.7842L588.708 118.448L589.542 119ZM611.814 85.336L612.647 84.7828L590.375 51.2468L589.542 51.8L588.709 52.3532L610.981 85.8892L611.814 85.336ZM589.542 51.8V52.8H610.79V51.8V50.8H589.542V51.8ZM610.79 51.8L609.89 52.2363L622.178 77.5803L623.078 77.144L623.978 76.7077L611.69 51.3637L610.79 51.8ZM623.078 77.144V78.144H625.254V77.144V76.144H623.078V77.144ZM625.254 77.144L626.154 77.5803L638.442 52.2363L637.542 51.8L636.642 51.3637L624.354 76.7077L625.254 77.144ZM637.542 51.8V52.8H658.662V51.8V50.8H637.542V51.8ZM658.662 51.8L657.829 51.2468L635.557 84.7828L636.39 85.336L637.223 85.8892L659.495 52.3532L658.662 51.8ZM636.39 85.336L635.559 85.8922L658.087 119.556L658.918 119L659.749 118.444L637.221 84.7798L636.39 85.336ZM658.918 119V118H637.798V119V120H658.918V119ZM637.798 119L638.695 118.558L626.151 93.0862L625.254 93.528L624.357 93.9698L636.901 119.442L637.798 119ZM625.254 93.528V92.528H623.078V93.528V94.528H625.254V93.528ZM623.078 93.528L622.177 93.0935L609.889 118.566L610.79 119L611.691 119.434L623.979 93.9625L623.078 93.528ZM610.79 119V118H589.542V119V120H610.79V119ZM682.582 118.488L682.243 119.429L682.249 119.431L682.582 118.488ZM671.702 111.832L671.005 112.549L671.702 111.832ZM664.79 101.08L663.849 101.419L663.852 101.427L663.855 101.435L664.79 101.08ZM664.662 72.024L663.715 71.7024L663.711 71.7133L664.662 72.024ZM671.318 60.376L672.063 61.0428L672.072 61.0331L671.318 60.376ZM681.942 52.696L682.336 53.6151L681.942 52.696ZM709.846 52.568L709.454 53.4881L709.463 53.4917L709.471 53.4951L709.846 52.568ZM719.83 59.992L719.047 60.6142L719.052 60.6203L719.057 60.6263L719.83 59.992ZM725.718 72.28L724.747 72.5185L724.749 72.5287L724.752 72.5387L725.718 72.28ZM727.126 88.792L727.136 89.792L728.073 89.7829L728.125 88.8467L727.126 88.792ZM674.39 89.304H673.39V90.3138L674.4 90.304L674.39 89.304ZM674.39 79.192L674.381 78.192L673.39 78.2011V79.192H674.39ZM716.502 78.808L717.119 79.5948L719.432 77.7812L716.493 77.808L716.502 78.808ZM709.974 83.928L708.983 83.7971L708.661 86.2283L710.591 84.7149L709.974 83.928ZM709.078 72.792L710.003 72.4112L709.078 72.792ZM703.83 66.392L703.306 67.2437L703.313 67.248L703.32 67.2523L703.83 66.392ZM687.83 66.904L688.398 67.7272L687.83 66.904ZM682.07 74.456L682.992 74.8441L682.995 74.8356L682.07 74.456ZM684.758 102.232L684.024 102.911L684.033 102.921L684.758 102.232ZM703.446 106.456L703.792 107.394L703.805 107.39L703.817 107.384L703.446 106.456ZM707.542 103.896L706.864 103.161L706.849 103.175L706.835 103.189L707.542 103.896ZM710.102 100.44L709.22 99.9694L709.207 99.9929L709.196 100.017L710.102 100.44ZM711.766 96.6L711.977 95.6225L711.101 95.4333L710.817 96.2838L711.766 96.6ZM727.766 100.056L728.738 100.292L728.98 99.2952L727.977 99.0785L727.766 100.056ZM724.31 108.632L723.452 108.117L723.447 108.126L724.31 108.632ZM718.422 115.16L719.008 115.97L719.018 115.963L719.026 115.957L718.422 115.16ZM709.462 119.256L709.203 118.29L709.189 118.294L709.175 118.298L709.462 119.256ZM697.43 120.792V119.792C691.974 119.792 687.141 119.037 682.915 117.545L682.582 118.488L682.249 119.431C686.727 121.011 691.792 121.792 697.43 121.792V120.792ZM682.582 118.488L682.921 117.547C678.776 116.055 675.275 113.908 672.399 111.115L671.702 111.832L671.005 112.549C674.103 115.558 677.855 117.849 682.243 119.429L682.582 118.488ZM671.702 111.832L672.399 111.115C669.527 108.325 667.299 104.868 665.725 100.725L664.79 101.08L663.855 101.435C665.523 105.825 667.904 109.537 671.005 112.549L671.702 111.832ZM664.79 101.08L665.731 100.741C664.24 96.6013 663.486 91.8974 663.486 86.616H662.486H661.486C661.486 92.0866 662.268 97.0253 663.849 101.419L664.79 101.08ZM662.486 86.616H663.486C663.486 81.417 664.199 76.6594 665.612 72.3347L664.662 72.024L663.711 71.7133C662.224 76.2633 661.486 81.2336 661.486 86.616H662.486ZM664.662 72.024L665.609 72.3456C667.106 67.9379 669.26 64.1757 672.063 61.0428L671.318 60.376L670.573 59.7092C667.573 63.0616 665.29 67.0648 663.715 71.7024L664.662 72.024ZM671.318 60.376L672.072 61.0331C674.871 57.8219 678.288 55.3498 682.336 53.6151L681.942 52.696L681.548 51.7769C677.233 53.6262 673.567 56.2741 670.564 59.7189L671.318 60.376ZM681.942 52.696L682.336 53.6151C686.374 51.8845 690.973 51.008 696.15 51.008V50.008V49.008C690.746 49.008 685.872 49.9235 681.548 51.7769L681.942 52.696ZM696.15 50.008V51.008C701.159 51.008 705.587 51.8425 709.454 53.4881L709.846 52.568L710.238 51.6478C706.083 49.8801 701.381 49.008 696.15 49.008V50.008ZM709.846 52.568L709.471 53.4951C713.325 55.0529 716.511 57.4238 719.047 60.6142L719.83 59.992L720.613 59.3698C717.858 55.9042 714.389 53.3257 710.221 51.6409L709.846 52.568ZM719.83 59.992L719.057 60.6263C721.679 63.8214 723.582 67.776 724.747 72.5185L725.718 72.28L726.689 72.0415C725.465 67.056 723.443 62.8186 720.603 59.3577L719.83 59.992ZM725.718 72.28L724.752 72.5387C725.999 77.1927 726.464 82.5872 726.128 88.7373L727.126 88.792L728.125 88.8467C728.47 82.5381 727.997 76.9247 726.684 72.0213L725.718 72.28ZM727.126 88.792L727.116 87.792L674.38 88.304L674.39 89.304L674.4 90.304L727.136 89.792L727.126 88.792ZM674.39 89.304H675.39V79.192H674.39H673.39V89.304H674.39ZM674.39 79.192L674.399 80.192L716.511 79.808L716.502 78.808L716.493 77.808L674.381 78.192L674.39 79.192ZM716.502 78.808L715.885 78.0211L709.357 83.1411L709.974 83.928L710.591 84.7149L717.119 79.5948L716.502 78.808ZM709.974 83.928L710.965 84.0589C711.576 79.4366 711.287 75.5315 710.003 72.4112L709.078 72.792L708.153 73.1727C709.258 75.8551 709.567 79.3741 708.983 83.7971L709.974 83.928ZM709.078 72.792L710.003 72.4112C708.74 69.345 706.861 67.0258 704.34 65.5317L703.83 66.392L703.32 67.2523C705.407 68.4888 707.027 70.4364 708.153 73.1727L709.078 72.792ZM703.83 66.392L704.354 65.5403C701.97 64.0732 699.312 63.344 696.406 63.344V64.344V65.344C698.961 65.344 701.253 65.9801 703.306 67.2437L703.83 66.392ZM696.406 64.344V63.344C692.977 63.344 689.917 64.2498 687.262 66.0808L687.83 66.904L688.398 67.7272C690.692 66.1448 693.349 65.344 696.406 65.344V64.344ZM687.83 66.904L687.262 66.0808C684.599 67.9176 682.569 70.6048 681.145 74.0764L682.07 74.456L682.995 74.8356C684.302 71.6512 686.112 69.3037 688.398 67.7272L687.83 66.904ZM682.07 74.456L681.148 74.0679C679.718 77.4651 679.022 81.53 679.022 86.232H680.022H681.022C681.022 81.718 681.691 77.9322 682.992 74.8441L682.07 74.456ZM680.022 86.232H679.022C679.022 93.6015 680.622 99.233 684.024 102.911L684.758 102.232L685.492 101.553C682.58 98.4044 681.022 93.3691 681.022 86.232H680.022ZM684.758 102.232L684.033 102.921C687.485 106.555 691.983 108.352 697.43 108.352V107.352V106.352C692.467 106.352 688.516 104.736 685.483 101.543L684.758 102.232ZM697.43 107.352V108.352C699.895 108.352 702.026 108.045 703.792 107.394L703.446 106.456L703.1 105.518C701.623 106.062 699.743 106.352 697.43 106.352V107.352ZM703.446 106.456L703.817 107.384C705.617 106.665 707.107 105.745 708.249 104.603L707.542 103.896L706.835 103.189C705.929 104.095 704.688 104.882 703.075 105.528L703.446 106.456ZM707.542 103.896L708.22 104.631C709.419 103.525 710.352 102.269 711.008 100.863L710.102 100.44L709.196 100.017C708.657 101.171 707.884 102.219 706.864 103.161L707.542 103.896ZM710.102 100.44L710.984 100.911C711.691 99.5848 712.269 98.2533 712.715 96.9162L711.766 96.6L710.817 96.2838C710.41 97.5067 709.878 98.7352 709.22 99.9694L710.102 100.44ZM711.766 96.6L711.555 97.5775L727.555 101.033L727.766 100.056L727.977 99.0785L711.977 95.6225L711.766 96.6ZM727.766 100.056L726.794 99.8196C726.048 102.888 724.932 105.651 723.453 108.118L724.31 108.632L725.167 109.146C726.76 106.493 727.948 103.539 728.738 100.292L727.766 100.056ZM724.31 108.632L723.447 108.126C722.068 110.479 720.197 112.559 717.818 114.363L718.422 115.16L719.026 115.957C721.597 114.007 723.651 111.734 725.173 109.138L724.31 108.632ZM718.422 115.16L717.836 114.35C715.476 116.059 712.605 117.377 709.203 118.29L709.462 119.256L709.721 120.222C713.316 119.257 716.419 117.845 719.008 115.97L718.422 115.16ZM709.462 119.256L709.175 118.298C705.877 119.287 701.968 119.792 697.43 119.792V120.792V121.792C702.108 121.792 706.22 121.273 709.749 120.214L709.462 119.256ZM740.573 119H739.573V120H740.573V119ZM740.573 27.48V26.48H739.573V27.48H740.573ZM758.749 27.48H759.749V26.48H758.749V27.48ZM758.749 119V120H759.749V119H758.749ZM740.573 119H741.573V27.48H740.573H739.573V119H740.573ZM740.573 27.48V28.48H758.749V27.48V26.48H740.573V27.48ZM758.749 27.48H757.749V119H758.749H759.749V27.48H758.749ZM758.749 119V118H740.573V119V120H758.749V119Z" fill="#00040D" mask="url(#path-1-outside-1_406_2)"/>
<path d="M660.471 119.297L636.752 84.9358L649.704 67.2371L661.077 51.1746L637.879 51.1863L631.369 63.2021L624.348 76.854L624.339 93.5355L627.034 99.0945L637.273 119.309L660.471 119.297Z" fill="#FF0686"/>
<path d="M588.25 51L599.605 67.7463L610.96 85L588.25 119H610.96L623.5 93.5H627L636.5 85.5L625 77H624H623L610.444 51H588.25Z" fill="#FFDD00"/>
</svg>
